HIERARCHY
ROOT Root
{
	OFFSET 0.00000 0.00000 0.00000
	CHANNELS 6 Xposition Yposition Zposition Zrotation Xrotation Yrotation
	JOINT Hip
	{
		OFFSET 0 0 0	
		CHANNELS 3 Zrotation Xrotation Yrotation
		JOINT Tummy
		{
			OFFSET 0 0.04 0	
			CHANNELS 3 Zrotation Xrotation Yrotation
			JOINT ChestBottom
			{
				OFFSET 0 0.194 0	
				CHANNELS 3 Zrotation Xrotation Yrotation
				JOINT ChestTop
				{
					OFFSET 0 0.166 0	
					CHANNELS 3 Zrotation Xrotation Yrotation
					JOINT LeftCollar
					{
						OFFSET 0 0.1 0	
						CHANNELS 3 Zrotation Xrotation Yrotation
						JOINT LeftUpperArm
						{
							OFFSET 0.156 -0.02 0.03	
							CHANNELS 3 Zrotation Xrotation Yrotation
							JOINT LeftForeArm
							{
								OFFSET 0.035 -0.27 -0.01	
								CHANNELS 3 Zrotation Xrotation Yrotation
								JOINT LeftHand
								{
									OFFSET 0.01 -0.27 0.01	
									CHANNELS 3 Zrotation Xrotation Yrotation
									End Site
									{
										OFFSET 0 -0.15 0
									}
								}
							}
						}
					}
					JOINT RightCollar
					{
						OFFSET 0 0.1 0	
						CHANNELS 3 Zrotation Xrotation Yrotation
						JOINT RightUpperArm
						{
							OFFSET -0.156 -0.02 0.03	
							CHANNELS 3 Zrotation Xrotation Yrotation
							JOINT RightForeArm
							{
								OFFSET -0.035 -0.27 -0.01	
								CHANNELS 3 Zrotation Xrotation Yrotation
								JOINT RightHand
								{
									OFFSET -0.01 -0.27 0.01	
									CHANNELS 3 Zrotation Xrotation Yrotation
									End Site
									{
										OFFSET 0 -0.15 0
									}
								}
							}
						}
					}
					JOINT Neck
					{
						OFFSET 0 0.1 0	
						CHANNELS 3 Zrotation Xrotation Yrotation
						JOINT Head
						{
							OFFSET 0 0.127 0.03	
							CHANNELS 3 Zrotation Xrotation Yrotation
							End Site
							{
								OFFSET 0 0.127 0.03
							}
						}
					}
				}
			}
		}
	}
	JOINT LeftHip
	{
		OFFSET 0 0 0	
		CHANNELS 3 Zrotation Xrotation Yrotation
		JOINT LeftThigh
		{
			OFFSET 0.088 -0.06 0	
			CHANNELS 3 Zrotation Xrotation Yrotation
			JOINT LeftLowerLeg
			{
				OFFSET 0 -0.39 0.02	
				CHANNELS 3 Zrotation Xrotation Yrotation
				JOINT LeftFootTop
				{
					OFFSET 0 -0.43 -0.02	
					CHANNELS 3 Zrotation Xrotation Yrotation
					JOINT LeftFootFront
					{
						OFFSET 0 -0.07 0.085	
						CHANNELS 3 Zrotation Xrotation Yrotation
						End Site
						{
							OFFSET 0 -0.005 0.09
						}
					}
				}
				JOINT LeftHeel
				{
					OFFSET 0 -0.43 -0.02	
					CHANNELS 3 Zrotation Xrotation Yrotation
					End Site
					{
						OFFSET 0 -0.075 -0.05
					}
				}
			}
		}
	}
	JOINT RightHip
	{
		OFFSET 0 0 0	
		CHANNELS 3 Zrotation Xrotation Yrotation
		JOINT RightThigh
		{
			OFFSET -0.088 -0.06 0	
			CHANNELS 3 Zrotation Xrotation Yrotation
			JOINT RightLowerLeg
			{
				OFFSET 0 -0.39 0.02	
				CHANNELS 3 Zrotation Xrotation Yrotation
				JOINT RightFootTop
				{
					OFFSET 0 -0.43 -0.02	
					CHANNELS 3 Zrotation Xrotation Yrotation
					JOINT RightFootFront
					{
						OFFSET 0 -0.07 0.085	
						CHANNELS 3 Zrotation Xrotation Yrotation
						End Site
						{
							OFFSET 0 -0.005 0.09
						}
					}
				}
				JOINT RightHeel
				{
					OFFSET 0 -0.43 -0.02	
					CHANNELS 3 Zrotation Xrotation Yrotation
					End Site
					{
						OFFSET 0 -0.075 -0.05
					}
				}
			}
		}
	}
}
MOTION
Frames: 25
Frame Time: 0.025
0 0.955 0 -0 0 -0 -0 0 -0 -0 0 -0 0.31421 -0.32411 0.0014573 -0 0 -0 -0 0 -0 -0.00094024 7.9554e-05 0.56034 -0.69259 -0.12257 0.99454 -0 0 -0 -0 0 -0 0.30058 -0.43 0.20406 -0.75088 0.0085908 -2.5015 -0 0 -0 -0 0 -0 -0 0 -0 -0 0 -0 -0 0 -0 -0 0 -0 -0 0 -0 -0 0 -0 -0 0 -0 -0 0 -0 -0 0 -0 -0 0 -0 -0 0 -0 -0 0 -0 -0 0 -0 
0 0.955 0 -0 0 -0 -0 0 -0 -0 0 -0 0.30347 -0.33057 -0.014432 -0 0 -0 -0 0 -0 -0.0062375 0.00071738 0.56341 -0.70822 -0.1158 1.0363 -0 0 -0 -0 0 -0 0.29263 -0.42058 0.22999 -0.74751 -0.0027672 -2.537 -0 0 -0 -0 0 -0 -0 0 -0 -0 0 -0 -0 0 -0 -0 0 -0 -0 0 -0 -0 0 -0 -0 0 -0 -0 0 -0 -0 0 -0 -0 0 -0 -0 0 -0 -0 0 -0 -0 0 -0 
0 0.955 0 -0 0 -0 -0 0 -0 -0 0 -0 0.2882 -0.34636 -0.034901 -0 0 -0 -0 0 -0 -0.013086 0.0083643 0.5657 -0.72993 -0.10639 1.0949 -0 0 -0 -0 0 -0 0.28165 -0.40064 0.26444 -0.74242 -0.018549 -2.5869 -0 0 -0 -0 0 -0 -0 0 -0 -0 0 -0 -0 0 -0 -0 0 -0 -0 0 -0 -0 0 -0 -0 0 -0 -0 0 -0 -0 0 -0 -0 0 -0 -0 0 -0 -0 0 -0 -0 0 -0 
0 0.955 0 -0 0 -0 -0 0 -0 -0 0 -0 0.27473 -0.36852 -0.055352 -0 0 -0 -0 0 -0 -0.021306 0.021815 0.56587 -0.75318 -0.097258 1.1566 -0 0 -0 -0 0 -0 0.26644 -0.37414 0.29916 -0.73567 -0.035024 -2.6395 -0 0 -0 -0 0 -0 -0 0 -0 -0 0 -0 -0 0 -0 -0 0 -0 -0 0 -0 -0 0 -0 -0 0 -0 -0 0 -0 -0 0 -0 -0 0 -0 -0 0 -0 -0 0 -0 -0 0 -0 
0 0.955 0 -0 0 -0 -0 0 -0 -0 0 -0 0.25778 -0.3907 -0.070717 -0 0 -0 -0 0 -0 -0.022535 0.034788 0.55934 -0.7782 -0.090069 1.218 -0 0 -0 -0 0 -0 0.25148 -0.34838 0.32782 -0.72728 -0.051449 -2.6925 -0 0 -0 -0 0 -0 -0 0 -0 -0 0 -0 -0 0 -0 -0 0 -0 -0 0 -0 -0 0 -0 -0 0 -0 -0 0 -0 -0 0 -0 -0 0 -0 -0 0 -0 -0 0 -0 -0 0 -0 
0 0.955 0 -0 0 -0 -0 0 -0 -0 0 -0 0.22976 -0.41666 -0.075433 -0 0 -0 -0 0 -0 -0.0098995 0.049511 0.54605 -0.8028 -0.083159 1.2773 -0 0 -0 -0 0 -0 0.24404 -0.32067 0.34426 -0.72053 -0.067849 -2.741 -0 0 -0 -0 0 -0 -0 0 -0 -0 0 -0 -0 0 -0 -0 0 -0 -0 0 -0 -0 0 -0 -0 0 -0 -0 0 -0 -0 0 -0 -0 0 -0 -0 0 -0 -0 0 -0 -0 0 -0 
0 0.955 0 -0 0 -0 -0 0 -0 -0 0 -0 0.20095 -0.4512 -0.074443 -0 0 -0 -0 0 -0 0.0020951 0.06745 0.53744 -0.82166 -0.0715 1.3385 -0 0 -0 -0 0 -0 0.23708 -0.28581 0.35304 -0.71919 -0.084991 -2.7764 -0 0 -0 -0 0 -0 -0 0 -0 -0 0 -0 -0 0 -0 -0 0 -0 -0 0 -0 -0 0 -0 -0 0 -0 -0 0 -0 -0 0 -0 -0 0 -0 -0 0 -0 -0 0 -0 -0 0 -0 
0 0.955 0 -0 0 -0 -0 0 -0 -0 0 -0 0.17589 -0.48833 -0.077331 -0 0 -0 -0 0 -0 0.0063431 0.082103 0.54227 -0.83135 -0.05337 1.4072 -0 0 -0 -0 0 -0 0.2293 -0.24944 0.36572 -0.72143 -0.10069 -2.7982 -0 0 -0 -0 0 -0 -0 0 -0 -0 0 -0 -0 0 -0 -0 0 -0 -0 0 -0 -0 0 -0 -0 0 -0 -0 0 -0 -0 0 -0 -0 0 -0 -0 0 -0 -0 0 -0 -0 0 -0 
0 0.955 0 -0 0 -0 -0 0 -0 -0 0 -0 0.15047 -0.51864 -0.078054 -0 0 -0 -0 0 -0 0.0090328 0.086273 0.54933 -0.8339 -0.030067 1.4808 -0 0 -0 -0 0 -0 0.22497 -0.22101 0.37942 -0.72134 -0.11289 -2.8158 -0 0 -0 -0 0 -0 -0 0 -0 -0 0 -0 -0 0 -0 -0 0 -0 -0 0 -0 -0 0 -0 -0 0 -0 -0 0 -0 -0 0 -0 -0 0 -0 -0 0 -0 -0 0 -0 -0 0 -0 
0 0.955 0 -0 0 -0 -0 0 -0 -0 0 -0 0.12428 -0.54308 -0.070694 -0 0 -0 -0 0 -0 0.014729 0.083002 0.54901 -0.83624 -0.0039677 1.5551 -0 0 -0 -0 0 -0 0.22487 -0.19825 0.38748 -0.71771 -0.12364 -2.8341 -0 0 -0 -0 0 -0 -0 0 -0 -0 0 -0 -0 0 -0 -0 0 -0 -0 0 -0 -0 0 -0 -0 0 -0 -0 0 -0 -0 0 -0 -0 0 -0 -0 0 -0 -0 0 -0 -0 0 -0 
0 0.955 0 -0 0 -0 -0 0 -0 -0 0 -0 0.10069 -0.56559 -0.059739 -0 0 -0 -0 0 -0 0.022644 0.078688 0.54513 -0.84426 0.019621 1.6317 -0 0 -0 -0 0 -0 0.22785 -0.17788 0.39135 -0.71585 -0.13331 -2.8503 -0 0 -0 -0 0 -0 -0 0 -0 -0 0 -0 -0 0 -0 -0 0 -0 -0 0 -0 -0 0 -0 -0 0 -0 -0 0 -0 -0 0 -0 -0 0 -0 -0 0 -0 -0 0 -0 -0 0 -0 
0 0.955 0 -0 0 -0 -0 0 -0 -0 0 -0 0.082621 -0.58709 -0.053159 -0 0 -0 -0 0 -0 0.029701 0.076469 0.54783 -0.85795 0.036444 1.7076 -0 0 -0 -0 0 -0 0.2313 -0.1606 0.39642 -0.71815 -0.14079 -2.8627 -0 0 -0 -0 0 -0 -0 0 -0 -0 0 -0 -0 0 -0 -0 0 -0 -0 0 -0 -0 0 -0 -0 0 -0 -0 0 -0 -0 0 -0 -0 0 -0 -0 0 -0 -0 0 -0 -0 0 -0 
0 0.955 0 -0 0 -0 -0 0 -0 -0 0 -0 0.067274 -0.61059 -0.04901 -0 0 -0 -0 0 -0 0.035773 0.080869 0.5574 -0.87141 0.045715 1.774 -0 0 -0 -0 0 -0 0.23621 -0.14255 0.39756 -0.72021 -0.14758 -2.8735 -0 0 -0 -0 0 -0 -0 0 -0 -0 0 -0 -0 0 -0 -0 0 -0 -0 0 -0 -0 0 -0 -0 0 -0 -0 0 -0 -0 0 -0 -0 0 -0 -0 0 -0 -0 0 -0 -0 0 -0 
0 0.955 0 -0 0 -0 -0 0 -0 -0 0 -0 0.052668 -0.63985 -0.04183 -0 0 -0 -0 0 -0 0.040966 0.094808 0.56433 -0.88002 0.050103 1.8268 -0 0 -0 -0 0 -0 0.24303 -0.11914 0.38541 -0.71694 -0.15659 -2.8821 -0 0 -0 -0 0 -0 -0 0 -0 -0 0 -0 -0 0 -0 -0 0 -0 -0 0 -0 -0 0 -0 -0 0 -0 -0 0 -0 -0 0 -0 -0 0 -0 -0 0 -0 -0 0 -0 -0 0 -0 
0 0.955 0 -0 0 -0 -0 0 -0 -0 0 -0 0.044098 -0.67331 -0.035938 -0 0 -0 -0 0 -0 0.042439 0.1143 0.56516 -0.88579 0.054165 1.8683 -0 0 -0 -0 0 -0 0.24533 -0.093193 0.36623 -0.70583 -0.16749 -2.8882 -0 0 -0 -0 0 -0 -0 0 -0 -0 0 -0 -0 0 -0 -0 0 -0 -0 0 -0 -0 0 -0 -0 0 -0 -0 0 -0 -0 0 -0 -0 0 -0 -0 0 -0 -0 0 -0 -0 0 -0 
0 0.955 0 -0 0 -0 -0 0 -0 -0 0 -0 0.040484 -0.69977 -0.030627 -0 0 -0 -0 0 -0 0.042888 0.12668 0.55864 -0.89155 0.059519 1.9001 -0 0 -0 -0 0 -0 0.24433 -0.076457 0.34982 -0.68904 -0.17805 -2.8991 -0 0 -0 -0 0 -0 -0 0 -0 -0 0 -0 -0 0 -0 -0 0 -0 -0 0 -0 -0 0 -0 -0 0 -0 -0 0 -0 -0 0 -0 -0 0 -0 -0 0 -0 -0 0 -0 -0 0 -0 
0 0.955 0 -0 0 -0 -0 0 -0 -0 0 -0 0.0382 -0.71721 -0.020716 -0 0 -0 -0 0 -0 0.044834 0.12825 0.54544 -0.89783 0.065532 1.9264 -0 0 -0 -0 0 -0 0.24511 -0.069093 0.33979 -0.67294 -0.18699 -2.9208 -0 0 -0 -0 0 -0 -0 0 -0 -0 0 -0 -0 0 -0 -0 0 -0 -0 0 -0 -0 0 -0 -0 0 -0 -0 0 -0 -0 0 -0 -0 0 -0 -0 0 -0 -0 0 -0 -0 0 -0 
0 0.955 0 -0 0 -0 -0 0 -0 -0 0 -0 0.040646 -0.73369 -0.015377 -0 0 -0 -0 0 -0 0.044095 0.12667 0.53898 -0.90352 0.072334 1.9536 -0 0 -0 -0 0 -0 0.24429 -0.061032 0.34595 -0.66155 -0.19314 -2.949 -0 0 -0 -0 0 -0 -0 0 -0 -0 0 -0 -0 0 -0 -0 0 -0 -0 0 -0 -0 0 -0 -0 0 -0 -0 0 -0 -0 0 -0 -0 0 -0 -0 0 -0 -0 0 -0 -0 0 -0 
0 0.955 0 -0 0 -0 -0 0 -0 -0 0 -0 0.048772 -0.75349 -0.018269 -0 0 -0 -0 0 -0 0.039734 0.12802 0.54431 -0.9056 0.079998 1.98 -0 0 -0 -0 0 -0 0.23855 -0.048198 0.36842 -0.65172 -0.19491 -2.9775 -0 0 -0 -0 0 -0 -0 0 -0 -0 0 -0 -0 0 -0 -0 0 -0 -0 0 -0 -0 0 -0 -0 0 -0 -0 0 -0 -0 0 -0 -0 0 -0 -0 0 -0 -0 0 -0 -0 0 -0 
0 0.955 0 -0 0 -0 -0 0 -0 -0 0 -0 0.060762 -0.77381 -0.02135 -0 0 -0 -0 0 -0 0.033677 0.13114 0.55295 -0.90277 0.087809 2.0016 -0 0 -0 -0 0 -0 0.22757 -0.034253 0.39302 -0.63815 -0.19241 -3.002 -0 0 -0 -0 0 -0 -0 0 -0 -0 0 -0 -0 0 -0 -0 0 -0 -0 0 -0 -0 0 -0 -0 0 -0 -0 0 -0 -0 0 -0 -0 0 -0 -0 0 -0 -0 0 -0 -0 0 -0 
0 0.955 0 -0 0 -0 -0 0 -0 -0 0 -0 0.076169 -0.79105 -0.019325 -0 0 -0 -0 0 -0 0.026648 0.13341 0.55735 -0.89878 0.094532 2.0242 -0 0 -0 -0 0 -0 0.21332 -0.022837 0.4061 -0.62153 -0.18805 -3.0147 -0 0 -0 -0 0 -0 -0 0 -0 -0 0 -0 -0 0 -0 -0 0 -0 -0 0 -0 -0 0 -0 -0 0 -0 -0 0 -0 -0 0 -0 -0 0 -0 -0 0 -0 -0 0 -0 -0 0 -0 
0 0.955 0 -0 0 -0 -0 0 -0 -0 0 -0 0.095727 -0.80697 -0.015467 -0 0 -0 -0 0 -0 0.018974 0.13659 0.55971 -0.8993 0.099422 2.0559 -0 0 -0 -0 0 -0 0.19835 -0.011242 0.40689 -0.60685 -0.18422 -3.0106 -0 0 -0 -0 0 -0 -0 0 -0 -0 0 -0 -0 0 -0 -0 0 -0 -0 0 -0 -0 0 -0 -0 0 -0 -0 0 -0 -0 0 -0 -0 0 -0 -0 0 -0 -0 0 -0 -0 0 -0 
0 0.955 0 -0 0 -0 -0 0 -0 -0 0 -0 0.11677 -0.82326 -0.013373 -0 0 -0 -0 0 -0 0.012585 0.14121 0.5674 -0.90387 0.10367 2.0924 -0 0 -0 -0 0 -0 0.18626 0.0022369 0.40219 -0.59612 -0.18145 -2.9974 -0 0 -0 -0 0 -0 -0 0 -0 -0 0 -0 -0 0 -0 -0 0 -0 -0 0 -0 -0 0 -0 -0 0 -0 -0 0 -0 -0 0 -0 -0 0 -0 -0 0 -0 -0 0 -0 -0 0 -0 
0 0.955 0 -0 0 -0 -0 0 -0 -0 0 -0 0.13534 -0.83807 -0.011807 -0 0 -0 -0 0 -0 0.0075438 0.14404 0.58215 -0.9058 0.11043 2.1233 -0 0 -0 -0 0 -0 0.17888 0.014601 0.39521 -0.58659 -0.17994 -2.9859 -0 0 -0 -0 0 -0 -0 0 -0 -0 0 -0 -0 0 -0 -0 0 -0 -0 0 -0 -0 0 -0 -0 0 -0 -0 0 -0 -0 0 -0 -0 0 -0 -0 0 -0 -0 0 -0 -0 0 -0 
0 0.955 0 -0 0 -0 -0 0 -0 -0 0 -0 0.15164 -0.8494 -0.010682 -0 0 -0 -0 0 -0 0.0014292 0.14274 0.59964 -0.90209 0.12196 2.1457 -0 0 -0 -0 0 -0 0.1729 0.023087 0.3863 -0.57437 -0.17947 -2.9801 -0 0 -0 -0 0 -0 -0 0 -0 -0 0 -0 -0 0 -0 -0 0 -0 -0 0 -0 -0 0 -0 -0 0 -0 -0 0 -0 -0 0 -0 -0 0 -0 -0 0 -0 -0 0 -0 -0 0 -0 
